<?xml version="1.0" encoding="utf-8"?>
<!-- Generator: Adobe Illustrator 19.0.1, SVG Export Plug-In . SVG Version: 6.00 Build 0)  -->
<svg version="1.1" id="Layer_1" xmlns="http://www.w3.org/2000/svg" xmlns:xlink="http://www.w3.org/1999/xlink" x="0px" y="0px"
	 viewBox="0 0 448 154" style="enable-background:new 0 0 448 154;" xml:space="preserve">
<style type="text/css">
	.st0{fill:#FFFFFF;stroke:#8E6D52;stroke-width:4;stroke-miterlimit:10;}
</style>
<path class="st0" d="M142.5,64.7c-1.3-3.8-3.3-7.2-6.1-10.1c-2.8-2.9-6.4-5.2-10.9-6.9c-4.4-1.7-9.8-2.5-16-2.5s-9.7,0.8-14.2,2.5
	c-4.6,1.7-8.3,4-11.2,6.9c-2.9,2.9-5.1,6.3-6.4,10.1c-1.4,3.8-2.1,7.9-2.1,12.1V83l-0.5,18.8c0,7.9-1.8,13.6-5.5,17
	c-3.6,3.4-6.7,5.1-13.2,5.1s-11.6-1.7-15.3-5.1c-3.7-3.4-5.5-9.1-5.5-17V49.2h-14V105c0,4.3,0.5,8.3,1.9,12.1
	c1.4,3.8,3.4,7.2,6.4,10.1c2.9,2.9,6.6,5.2,11.2,6.9c4.6,1.7,9.9,2.5,16.2,2.5c6.3,0,9.6-0.8,14-2.5s8-4,10.9-6.9
	c2.8-2.9,4.6-6.3,5.9-10.1c1.3-3.8,1.6-7.9,1.6-12.1V79.7c0-3,0.4-6.1,1.2-9c1-3.3,2.3-5.9,4.4-7.8c3.7-3.4,6.9-5.1,13.4-5.1
	s11.7,1.7,15.3,5.1c3.6,3.4,5.5,8.9,5.5,16.8l-0.1,56.5h15l0.1-59.6C144.4,72.3,143.8,68.5,142.5,64.7z"/>
<g>
	<g>
		<path d="M186.5,54.2c10,0,17.8,2.5,23.3,7.6c5.5,5.1,8.2,12.2,8.2,21.5c0,1.9-0.1,3.9-0.3,5.9c-0.2,2-0.6,3.4-1.2,4.4h-57.6v1.7
			c0,4.3,0.6,8.5,1.7,12.5s2.8,7.5,5.1,10.6c2.3,3.1,5.2,5.5,8.6,7.4c3.5,1.8,7.6,2.7,12.4,2.7c2.7,0,5.4-0.3,8-0.9s5.1-1.4,7.5-2.4
			s4.6-2,6.7-3.2c2.1-1.1,4.7-2.9,6.3-4l0.1,0.7c0.3,2.8,1.1,5.5,2.4,8l0.5,0.8c-1.5,0.9-5,2.8-7.2,3.9s-4.6,2.1-7.2,3
			s-5.5,1.7-8.6,2.3c-3.1,0.6-6.4,0.9-9.8,0.9c-6.4,0-12-1.1-16.9-3.3c-4.9-2.2-9-5.2-12.3-9.1c-3.3-3.8-5.8-8.2-7.5-13.3
			c-1.7-5-2.6-10.3-2.6-15.7c0-5.6,0.9-10.9,2.7-16c1.8-5.1,4.4-9.5,7.8-13.4s7.7-6.9,12.7-9.1C174.2,55.3,180,54.2,186.5,54.2z
			 M185.9,63.8c-7.5,0-13.4,2-17.5,5.9c-4.2,3.9-7,8.9-8.5,14.8h46.7c0.1-0.6,0.2-1.1,0.2-1.5c0-0.5,0-1,0-1.5
			c0-2.8-0.6-5.4-1.7-7.6s-2.7-4.1-4.6-5.6s-4.2-2.6-6.7-3.3C191.3,64.2,188.7,63.8,185.9,63.8z"/>
	</g>
	<g>
		<path d="M330.5,71.7h-5.2l-8.7-14h13.7l2.6-23.8h9.1v23.8h18.6v12.1h-17.7v50.5c0,3.7,0.5,6,1.6,7.2c1.1,1.1,2.8,1.7,5,1.7
			c2.6,0,5-0.4,7-1.2c2.1-0.8,2.3-0.9,3.9-2.1v9.4c-1.9,1-0.7,0.5-3.6,1.6c-3,1.2-6.6,1.4-10.3,1.4s-6.5-0.5-8.6-1.5
			s-3.6-2.4-4.6-4.1s-1.7-3.6-2-5.7s-0.4-4.2-0.4-6.2L330.5,71.7z"/>
	</g>
	<g>
		<path d="M414.7,138.4v-52c0-7-1.5-11.9-4.6-14.8s-7-4.4-11.8-4.4c-2.9,0-5.7,0.5-8.5,1.4s-4.4,2.3-6.8,4c-2.4,1.8-4.5,3.9-6.3,6.5
			s-3.2,5.5-4.3,8.8v50.5l-11.6-0.1l-0.1-126.5h11.8l-0.1,62.6c1.5-4.8,4.7-8.9,9.7-12.2c5-3.4,10.3-5,17.9-5
			c3.6,0,7.1,0.5,10.3,1.5s6.1,2.5,8.5,4.7s4.3,5,5.7,8.6c1.4,3.5,2.1,7.9,2.1,13v53.5h-11.9V138.4z"/>
	</g>
	<g>
		<path d="M325.3,71.7c-1.8-1-3.7-1.9-5.5-2.5s-3.6-0.9-5.3-0.9c-2.3,0-4.4,0.6-6.5,1.9s-3.9,3-5.6,5.1c-1.7,2.2-3.2,4.7-4.5,7.5
			c-1.3,2.9-2.3,5.8-3,8.9v46h-12L283,59h11.1v17.3h0.3c0.8-2.6,1.9-5.1,3.2-7.5s2.9-4.5,4.8-6.3c1.9-1.8,3-3.3,5.4-4.4
			c2.4-1.1,5.1-1.6,8.2-1.6c2.2,0,4.4,0.4,6.8,1.1c2.4,0.7,4.1,1.7,5.1,2.8L325.3,71.7z"/>
	</g>
	<g>
		<path d="M273,137.8l-1.4-16h-0.7c-1.4,2.2-3.2,4.2-5.5,6.2c-2.3,1.9-4.8,3.7-7.6,5.1c-2.8,1.5-5.8,2.7-9.1,3.5s-6.5,1.3-9.7,1.3
			c-7.5,0-14.2-2.2-17.9-6.6c-3.8-4.4-5.6-9.9-5.6-16.5c0-6.5,1.7-11.7,5-15.6s7.4-6.8,12.1-8.7c4.8-1.9,10.8-3.2,16.1-3.8
			c5.3-0.6,9.9-0.9,13.9-0.9h7.7v-2.1c0-4.3-0.6-7.6-1.8-9.9s-2.9-4.2-5.2-5.8c-1.9-1.3-4-2.1-6.2-2.7c-2.2-0.5-5.2-0.8-8.8-0.8
			c-4.8,0-9,0.6-12.7,1.9s-8.2,2.9-11.6,5l-2.7-10.3c7.6-4.4,16.8-6.7,27.4-6.7c4.2,0,8.2,0.4,12,1.1c3.8,0.7,7.1,2,9.9,3.8
			c3.3,2.1,6.9,5,8.9,8.7c1.9,3.8,2.9,8.4,2.9,14v55.5H273V137.8z M242.7,127.7c4.7,0,9.6-1.5,14.9-4.4c5.2-3,9.5-7.2,12.8-12.8
			V94.6h-1.5c-4.7,0-9.4,0.2-14,0.5c-4.7,0.3-8.9,1.2-12.7,2.6c-3.8,1.4-7.9,3.3-10.3,5.9s-3.6,6.1-3.6,10.5s1.2,7.8,3.7,10.2
			C234.3,126.6,238.6,127.7,242.7,127.7z"/>
	</g>
</g>
</svg>
